<?xml version="1.0" encoding="UTF-8"?>
<!DOCTYPE svg PUBLIC "-//W3C//DTD SVG 1.1//EN" "http://www.w3.org/Graphics/SVG/1.1/DTD/svg11.dtd">
<svg xmlns="http://www.w3.org/2000/svg" version="1.1" width="698px" height="2048px" style="shape-rendering:geometricPrecision; text-rendering:geometricPrecision; image-rendering:optimizeQuality; fill-rule:evenodd; clip-rule:evenodd" xmlns:xlink="http://www.w3.org/1999/xlink">
<g><path style="opacity:1" fill="#000000" d="M -0.5,-0.5 C 232.167,-0.5 464.833,-0.5 697.5,-0.5C 697.5,682.167 697.5,1364.83 697.5,2047.5C 464.833,2047.5 232.167,2047.5 -0.5,2047.5C -0.5,1364.83 -0.5,682.167 -0.5,-0.5 Z"/></g>
<g><path style="opacity:1" fill="#fca7cc" d="M 246.5,246.5 C 229.507,252.498 212.507,258.498 195.5,264.5C 195.5,262.833 195.5,261.167 195.5,259.5C 199.822,205.46 204.655,151.46 210,97.5C 223.448,92.3193 237.282,91.1526 251.5,94C 261.922,98.9943 268.422,107.161 271,118.5C 273.506,137.666 272.506,156.666 268,175.5C 261.944,199.503 254.777,223.169 246.5,246.5 Z"/></g>
<g><path style="opacity:1" fill="#fca8cd" d="M 192.5,265.5 C 193.833,265.5 194.5,266.167 194.5,267.5C 190.94,305.491 187.773,343.491 185,381.5C 207.928,337.523 228.428,292.523 246.5,246.5C 265.26,239.081 284.593,233.581 304.5,230C 317.037,228.164 329.037,229.831 340.5,235C 351.942,243.694 360.108,254.861 365,268.5C 371.549,284.913 374.883,301.913 375,319.5C 308.706,373.156 242.373,426.823 176,480.5C 178.333,448.833 180.667,417.167 183,385.5C 164.183,421.813 143.85,457.146 122,491.5C 108.001,408.825 94.3347,326.158 81,243.5C 90.7959,266.283 108.129,277.283 133,276.5C 153.375,275.613 173.208,271.946 192.5,265.5 Z"/></g>
<g><path style="opacity:1" fill="#fda8cd" d="M 377.5,851.5 C 377.5,892.167 377.5,932.833 377.5,973.5C 377.167,974.833 376.833,976.167 376.5,977.5C 374.341,983.151 371.674,988.484 368.5,993.5C 352.738,975.524 333.072,969.024 309.5,974C 284.285,984.559 269.452,1003.39 265,1030.5C 263.274,1063.33 273.774,1091.5 296.5,1115C 300.789,1118.46 305.456,1121.29 310.5,1123.5C 289.681,1169.14 268.848,1214.81 248,1260.5C 226.948,1134.19 206.115,1007.85 185.5,881.5C 164.614,885.127 143.614,887.96 122.5,890C 92.9081,893.985 67.0748,886.152 45,866.5C 40.9215,861.343 37.0882,856.01 33.5,850.5C 75.1887,810.644 117.355,771.311 160,732.5C 160.167,731.5 160.333,730.5 160.5,729.5C 149.693,659.99 138.026,590.657 125.5,521.5C 107.689,535.477 90.0223,549.643 72.5,564C 71.8333,564.667 71.1667,564.667 70.5,564C 88.9277,541.646 105.761,518.146 121,493.5C 123.209,502.068 125.209,510.735 127,519.5C 143.011,506.819 159.011,494.153 175,481.5C 177.879,482.376 180.213,484.042 182,486.5C 184.911,489.99 187.578,493.656 190,497.5C 199,515.5 208,533.5 217,551.5C 220.878,557.045 225.711,561.545 231.5,565C 236.589,565.826 241.589,565.492 246.5,564C 299.2,539.3 336.033,499.8 357,445.5C 372.324,404.57 378.991,362.237 377,318.5C 409.591,292.453 442.091,266.287 474.5,240C 513.765,240.312 549.432,251.645 581.5,274C 603.312,290.457 617.479,311.957 624,338.5C 628.281,362.318 621.781,382.485 604.5,399C 600.833,401.333 597.167,403.667 593.5,406C 573.852,407.076 554.185,408.076 534.5,409C 524.798,410.789 515.131,412.789 505.5,415C 502.929,415.901 500.596,417.234 498.5,419C 386.634,523.201 274.467,627.034 162,730.5C 169.018,780.639 177.018,830.639 186,880.5C 248.901,865.014 312.734,855.347 377.5,851.5 Z"/></g>
<g><path style="opacity:1" fill="#030203" d="M 246.5,246.5 C 228.428,292.523 207.928,337.523 185,381.5C 187.773,343.491 190.94,305.491 194.5,267.5C 195.404,266.791 195.737,265.791 195.5,264.5C 212.507,258.498 229.507,252.498 246.5,246.5 Z"/></g>
<g><path style="opacity:1" fill="#5b3c4a" d="M 195.5,259.5 C 195.5,261.167 195.5,262.833 195.5,264.5C 195.737,265.791 195.404,266.791 194.5,267.5C 194.5,266.167 193.833,265.5 192.5,265.5C 193.842,263.639 194.842,261.639 195.5,259.5 Z"/></g>
<g><path style="opacity:1" fill="#f7a4c8" d="M 343.5,694.5 C 353.952,692.26 362.452,695.26 369,703.5C 374.5,711.331 377.167,719.997 377,729.5C 362.362,719.695 347.862,709.695 333.5,699.5C 336.916,697.792 340.25,696.125 343.5,694.5 Z"/></g>
<g><path style="opacity:1" fill="#805568" d="M 378.5,827.5 C 378.5,835.167 378.5,842.833 378.5,850.5C 380.833,850.5 383.167,850.5 385.5,850.5C 383.052,851.473 380.385,851.806 377.5,851.5C 377.174,843.316 377.508,835.316 378.5,827.5 Z"/></g>
<g><path style="opacity:1" fill="#fca8cc" d="M 310.5,1123.5 C 329.704,1080.4 349.204,1037.4 369,994.5C 372.487,998.142 375.487,1002.14 378,1006.5C 378.499,1000.84 378.666,995.176 378.5,989.5C 378.5,984.167 378.5,978.833 378.5,973.5C 397.167,932.167 415.833,890.833 434.5,849.5C 435.338,849.158 435.672,848.492 435.5,847.5C 430.968,847.182 426.634,847.515 422.5,848.5C 410.139,848.724 397.805,849.391 385.5,850.5C 383.167,850.5 380.833,850.5 378.5,850.5C 378.5,842.833 378.5,835.167 378.5,827.5C 379.433,806.511 380.1,785.511 380.5,764.5C 380.527,753.078 380.027,741.745 379,730.5C 406.767,748.76 434.934,766.427 463.5,783.5C 474.329,761.837 484.662,739.837 494.5,717.5C 516.742,717.812 537.742,723.312 557.5,734C 569.435,741.267 578.601,751.101 585,763.5C 585.667,761.167 585.667,758.833 585,756.5C 580.606,731.133 576.106,705.799 571.5,680.5C 593.387,680.852 614.053,686.019 633.5,696C 647.294,704.436 656.461,716.269 661,731.5C 635.71,767.913 610.543,804.413 585.5,841C 588.981,843.766 590.481,847.266 590,851.5C 589.5,852 589,852.5 588.5,853C 584.558,853.993 580.558,854.66 576.5,855C 516.943,940.225 457.777,1025.72 399,1111.5C 401.672,1085.8 399.172,1060.63 391.5,1036C 388.101,1026.46 383.934,1017.3 379,1008.5C 379.602,1031.47 379.602,1054.47 379,1077.5C 373.802,1098.35 361.635,1113.52 342.5,1123C 331.819,1127.31 321.152,1127.48 310.5,1123.5 Z"/></g>
<g><path style="opacity:1" fill="#020102" d="M 435.5,847.5 C 444.789,826.254 454.623,805.254 465,784.5C 498.185,804.841 533.352,821.007 570.5,833C 575.702,835.094 580.369,837.928 584.5,841.5C 582.418,845.747 579.751,849.581 576.5,853C 575.333,853.167 574.167,853.333 573,853.5C 556.978,850.306 540.811,848.14 524.5,847C 494.824,846.261 465.157,846.428 435.5,847.5 Z"/></g>
<g><path style="opacity:1" fill="#6f4a5a" d="M 422.5,848.5 C 426.634,847.515 430.968,847.182 435.5,847.5C 435.672,848.492 435.338,849.158 434.5,849.5C 430.702,848.517 426.702,848.183 422.5,848.5 Z"/></g>
<g><path style="opacity:1" fill="#020101" d="M 422.5,848.5 C 426.702,848.183 430.702,848.517 434.5,849.5C 415.833,890.833 397.167,932.167 378.5,973.5C 378.167,973.5 377.833,973.5 377.5,973.5C 377.5,932.833 377.5,892.167 377.5,851.5C 380.385,851.806 383.052,851.473 385.5,850.5C 397.805,849.391 410.139,848.724 422.5,848.5 Z"/></g>
<g><path style="opacity:1" fill="#010101" d="M 376.5,977.5 C 377.167,981.5 377.833,985.5 378.5,989.5C 378.666,995.176 378.499,1000.84 378,1006.5C 375.487,1002.14 372.487,998.142 369,994.5C 349.204,1037.4 329.704,1080.4 310.5,1123.5C 305.456,1121.29 300.789,1118.46 296.5,1115C 273.774,1091.5 263.274,1063.33 265,1030.5C 269.452,1003.39 284.285,984.559 309.5,974C 333.072,969.024 352.738,975.524 368.5,993.5C 371.674,988.484 374.341,983.151 376.5,977.5 Z"/></g>
<g><path style="opacity:1" fill="#785062" d="M 377.5,973.5 C 377.833,973.5 378.167,973.5 378.5,973.5C 378.5,978.833 378.5,984.167 378.5,989.5C 377.833,985.5 377.167,981.5 376.5,977.5C 376.833,976.167 377.167,974.833 377.5,973.5 Z"/></g>
<g><path style="opacity:1" fill="#f8a5c9" d="M 397.5,1112.5 C 398.097,1112.74 398.43,1113.24 398.5,1114C 392.493,1145.18 380.326,1173.68 362,1199.5C 340.08,1230.09 314.08,1256.75 284,1279.5C 283.333,1278.83 283.333,1278.17 284,1277.5C 322.337,1222.82 360.17,1167.82 397.5,1112.5 Z"/></g>
<g><path style="opacity:1" fill="#f5a3c6" d="M 247.5,1261.5 C 250.101,1274.1 252.601,1286.76 255,1299.5C 263.11,1294.39 270.943,1288.89 278.5,1283C 279.332,1282.31 279.998,1282.48 280.5,1283.5C 272.667,1294.5 264.833,1305.5 257,1316.5C 256.579,1310.96 255.413,1305.63 253.5,1300.5C 243.737,1306.8 233.57,1312.47 223,1317.5C 230.843,1298.8 239.01,1280.14 247.5,1261.5 Z"/></g>
<g><path style="opacity:1" fill="#fba7cb" d="M 279.5,1454.5 C 243.591,1445.22 207.257,1441.22 170.5,1442.5C 199.138,1400.7 227.972,1359.03 257,1317.5C 264.934,1363.1 272.434,1408.77 279.5,1454.5 Z"/></g>
<g><path style="opacity:1" fill="#fba7cc" d="M 326.5,1466.5 C 326.81,1463.29 326.477,1460.29 325.5,1457.5C 323.289,1432.42 321.289,1407.42 319.5,1382.5C 343.121,1392.66 364.788,1405.82 384.5,1422C 392.141,1429.3 398.641,1437.47 404,1446.5C 408.388,1456.11 406.555,1464.28 398.5,1471C 388.077,1476.15 377.077,1477.82 365.5,1476C 352.23,1473.9 339.23,1470.73 326.5,1466.5 Z"/></g>
<g><path style="opacity:1" fill="#f5a3c7" d="M 165.5,1443.5 C 166.978,1443.24 168.311,1443.57 169.5,1444.5C 158.667,1460.17 147.833,1475.83 137,1491.5C 129.269,1474.37 133.103,1460.54 148.5,1450C 154.16,1447.51 159.826,1445.34 165.5,1443.5 Z"/></g>
<g><path style="opacity:1" fill="#654352" d="M 325.5,1457.5 C 326.477,1460.29 326.81,1463.29 326.5,1466.5C 325.508,1466.67 324.842,1466.34 324.5,1465.5C 325.473,1463.05 325.806,1460.39 325.5,1457.5 Z"/></g>
<g><path style="opacity:1" fill="#fda8cd" d="M 279.5,1454.5 C 294.572,1457.87 309.572,1461.54 324.5,1465.5C 324.842,1466.34 325.508,1466.67 326.5,1466.5C 328.334,1485.51 330.334,1504.51 332.5,1523.5C 361.556,1508.09 391.889,1495.93 423.5,1487C 458.93,1476.92 494.596,1475.92 530.5,1484C 556.804,1491.33 579.304,1504.83 598,1524.5C 612.842,1544.71 617.175,1567.04 611,1591.5C 595.413,1636.41 564.246,1663.58 517.5,1673C 483.376,1678.28 450.376,1674.28 418.5,1661C 390.014,1648.6 364.014,1632.44 340.5,1612.5C 337.783,1583.11 334.616,1553.78 331,1524.5C 318.924,1530.79 307.09,1537.45 295.5,1544.5C 289.517,1514.6 284.183,1484.6 279.5,1454.5 Z"/></g>
<g><path style="opacity:1" fill="#fba7cc" d="M 342.5,1838.5 C 342.768,1840.1 342.434,1841.43 341.5,1842.5C 326.79,1804.74 309.624,1768.08 290,1732.5C 264.95,1687.97 238.116,1644.64 209.5,1602.5C 188.64,1617.86 167.64,1633.03 146.5,1648C 131.488,1657.17 115.488,1664.17 98.5,1669C 79.9936,1672.73 62.3269,1670.4 45.5,1662C 38.9494,1658.89 32.616,1655.56 26.5,1652C 62.7907,1598.59 99.4573,1545.42 136.5,1492.5C 146.673,1514.83 159.84,1535.16 176,1553.5C 186.333,1568.5 196.667,1583.5 207,1598.5C 208.019,1599.69 209.186,1600.69 210.5,1601.5C 237.489,1581.19 265.489,1562.69 294.5,1546C 311.09,1643.37 327.09,1740.87 342.5,1838.5 Z"/></g>
<g><path style="opacity:1" fill="#ad738d" d="M 342.5,1838.5 C 343.85,1841.95 344.35,1845.62 344,1849.5C 342.864,1847.26 342.03,1844.92 341.5,1842.5C 342.434,1841.43 342.768,1840.1 342.5,1838.5 Z"/></g>
<g><path style="opacity:1" fill="#ee9ec1" d="M 345.5,1854.5 C 358.829,1886.81 364.495,1920.47 362.5,1955.5C 356.29,1921.9 350.623,1888.24 345.5,1854.5 Z"/></g>
</svg>
